<?xml version="1.0" encoding="UTF-8"?>
<svg width="120px" height="120px" viewBox="0 0 120 120" version="1.1" xmlns="http://www.w3.org/2000/svg" xmlns:xlink="http://www.w3.org/1999/xlink">
    <title>失败</title>
    <g id="失败" stroke="none" stroke-width="1" fill="none" fill-rule="evenodd">
        <rect id="矩形" fill="#000000" fill-rule="nonzero" opacity="0" x="0" y="0" width="120" height="120"></rect>
        <path d="M60,7.5 C31.0078125,7.5 7.5,31.0078125 7.5,60 C7.5,88.9921875 31.0078125,112.5 60,112.5 C88.9921875,112.5 112.5,88.9921875 112.5,60 C112.5,31.0078125 88.9921875,7.5 60,7.5 Z M56.25,34.6875 C56.25,34.171875 56.671875,33.75 57.1875,33.75 L62.8125,33.75 C63.328125,33.75 63.75,34.171875 63.75,34.6875 L63.75,66.5625 C63.75,67.078125 63.328125,67.5 62.8125,67.5 L57.1875,67.5 C56.671875,67.5 56.25,67.078125 56.25,66.5625 L56.25,34.6875 Z M60,86.25 C56.8945312,86.25 54.375,83.7304688 54.375,80.625 C54.375,77.5195312 56.8945312,75 60,75 C63.1054688,75 65.625,77.5195312 65.625,80.625 C65.625,83.7304688 63.1054688,86.25 60,86.25 Z" id="形状" fill="#FFFFFF"></path>
    </g>
</svg>