<?xml version="1.0" encoding="UTF-8"?>
<svg width="120px" height="120px" viewBox="0 0 120 120" version="1.1" xmlns="http://www.w3.org/2000/svg" xmlns:xlink="http://www.w3.org/1999/xlink">
    <title>成功</title>
    <g id="成功" stroke="none" stroke-width="1" fill="none" fill-rule="evenodd">
        <rect id="矩形" fill="#000000" fill-rule="nonzero" opacity="0" x="0" y="0" width="120" height="120"></rect>
        <path d="M60,7.5 C31.0078125,7.5 7.5,31.0078125 7.5,60 C7.5,88.9921875 31.0078125,112.5 60,112.5 C88.9921875,112.5 112.5,88.9921875 112.5,60 C112.5,31.0078125 88.9921875,7.5 60,7.5 Z M82.6757813,42.8554687 L57.9960938,77.0742188 C56.5078125,79.1484375 53.4257813,79.1484375 51.9375,77.0742188 L37.3242188,56.8242187 C36.8789063,56.203125 37.3242188,55.3359375 38.0859375,55.3359375 L43.5820313,55.3359375 C44.7773438,55.3359375 45.9140625,55.9101562 46.6171875,56.8945312 L54.9609375,68.4726562 L73.3828125,42.9257812 C74.0859375,41.953125 75.2109375,41.3671875 76.4179688,41.3671875 L81.9140625,41.3671875 C82.6757813,41.3671875 83.1210938,42.234375 82.6757813,42.8554687 Z" id="形状" fill="#FFFFFF"></path>
    </g>
</svg>